<mxfile host="Electron" agent="Mozilla/5.0 (Windows NT 10.0; Win64; x64) AppleWebKit/537.36 (KHTML, like Gecko) draw.io/26.2.2 Chrome/134.0.6998.178 Electron/35.1.2 Safari/537.36" version="26.2.2">
  <diagram name="Page-1" id="9OZGOkLRvLw-cZsnRgsN">
    <mxGraphModel dx="1043" dy="637" grid="1" gridSize="10" guides="1" tooltips="1" connect="1" arrows="1" fold="1" page="1" pageScale="1" pageWidth="827" pageHeight="1169" math="0" shadow="0">
      <root>
        <mxCell id="0" />
        <mxCell id="1" parent="0" />
        <mxCell id="rm31shmKHeU_tyy5SRNq-1" value="League" style="ellipse;whiteSpace=wrap;html=1;aspect=fixed;" vertex="1" parent="1">
          <mxGeometry x="390" y="310" width="80" height="80" as="geometry" />
        </mxCell>
        <mxCell id="rm31shmKHeU_tyy5SRNq-2" value="Player" style="ellipse;whiteSpace=wrap;html=1;aspect=fixed;" vertex="1" parent="1">
          <mxGeometry x="500" y="500" width="80" height="80" as="geometry" />
        </mxCell>
        <mxCell id="rm31shmKHeU_tyy5SRNq-3" value="Game" style="ellipse;whiteSpace=wrap;html=1;aspect=fixed;" vertex="1" parent="1">
          <mxGeometry x="384" y="660" width="80" height="80" as="geometry" />
        </mxCell>
        <mxCell id="rm31shmKHeU_tyy5SRNq-4" value="Team" style="ellipse;whiteSpace=wrap;html=1;aspect=fixed;" vertex="1" parent="1">
          <mxGeometry x="260" y="500" width="80" height="80" as="geometry" />
        </mxCell>
        <mxCell id="rm31shmKHeU_tyy5SRNq-6" value="" style="endArrow=none;html=1;rounded=0;entryX=0;entryY=1;entryDx=0;entryDy=0;exitX=1;exitY=0;exitDx=0;exitDy=0;" edge="1" parent="1" source="rm31shmKHeU_tyy5SRNq-4" target="rm31shmKHeU_tyy5SRNq-1">
          <mxGeometry width="50" height="50" relative="1" as="geometry">
            <mxPoint x="400" y="690" as="sourcePoint" />
            <mxPoint x="450" y="640" as="targetPoint" />
          </mxGeometry>
        </mxCell>
        <mxCell id="rm31shmKHeU_tyy5SRNq-10" value="plays in" style="edgeLabel;html=1;align=center;verticalAlign=middle;resizable=0;points=[];" vertex="1" connectable="0" parent="rm31shmKHeU_tyy5SRNq-6">
          <mxGeometry x="0.0231" relative="1" as="geometry">
            <mxPoint as="offset" />
          </mxGeometry>
        </mxCell>
        <mxCell id="rm31shmKHeU_tyy5SRNq-7" value="" style="endArrow=none;html=1;rounded=0;entryX=1;entryY=1;entryDx=0;entryDy=0;exitX=0;exitY=0;exitDx=0;exitDy=0;" edge="1" parent="1" source="rm31shmKHeU_tyy5SRNq-3" target="rm31shmKHeU_tyy5SRNq-4">
          <mxGeometry width="50" height="50" relative="1" as="geometry">
            <mxPoint x="400" y="690" as="sourcePoint" />
            <mxPoint x="450" y="640" as="targetPoint" />
          </mxGeometry>
        </mxCell>
        <mxCell id="rm31shmKHeU_tyy5SRNq-12" value="plays" style="edgeLabel;html=1;align=center;verticalAlign=middle;resizable=0;points=[];" vertex="1" connectable="0" parent="rm31shmKHeU_tyy5SRNq-7">
          <mxGeometry x="0.0791" y="2" relative="1" as="geometry">
            <mxPoint as="offset" />
          </mxGeometry>
        </mxCell>
        <mxCell id="rm31shmKHeU_tyy5SRNq-8" value="" style="endArrow=none;html=1;rounded=0;entryX=0;entryY=1;entryDx=0;entryDy=0;exitX=1;exitY=0;exitDx=0;exitDy=0;" edge="1" parent="1" source="rm31shmKHeU_tyy5SRNq-3" target="rm31shmKHeU_tyy5SRNq-2">
          <mxGeometry width="50" height="50" relative="1" as="geometry">
            <mxPoint x="400" y="690" as="sourcePoint" />
            <mxPoint x="450" y="640" as="targetPoint" />
          </mxGeometry>
        </mxCell>
        <mxCell id="rm31shmKHeU_tyy5SRNq-13" value="plays" style="edgeLabel;html=1;align=center;verticalAlign=middle;resizable=0;points=[];" vertex="1" connectable="0" parent="rm31shmKHeU_tyy5SRNq-8">
          <mxGeometry x="0.1709" relative="1" as="geometry">
            <mxPoint as="offset" />
          </mxGeometry>
        </mxCell>
        <mxCell id="rm31shmKHeU_tyy5SRNq-9" value="" style="endArrow=none;html=1;rounded=0;entryX=0;entryY=0.5;entryDx=0;entryDy=0;exitX=1;exitY=0.5;exitDx=0;exitDy=0;" edge="1" parent="1" source="rm31shmKHeU_tyy5SRNq-4" target="rm31shmKHeU_tyy5SRNq-2">
          <mxGeometry width="50" height="50" relative="1" as="geometry">
            <mxPoint x="400" y="690" as="sourcePoint" />
            <mxPoint x="450" y="640" as="targetPoint" />
          </mxGeometry>
        </mxCell>
        <mxCell id="rm31shmKHeU_tyy5SRNq-11" value="&amp;nbsp;belongs to&amp;nbsp;" style="edgeLabel;html=1;align=center;verticalAlign=middle;resizable=0;points=[];" vertex="1" connectable="0" parent="rm31shmKHeU_tyy5SRNq-9">
          <mxGeometry x="-0.0135" y="1" relative="1" as="geometry">
            <mxPoint as="offset" />
          </mxGeometry>
        </mxCell>
        <mxCell id="rm31shmKHeU_tyy5SRNq-14" value="isTeamCaptain: bool" style="text;html=1;align=center;verticalAlign=middle;resizable=0;points=[];autosize=1;strokeColor=none;fillColor=none;" vertex="1" parent="1">
          <mxGeometry x="358" y="500" width="130" height="30" as="geometry" />
        </mxCell>
        <mxCell id="rm31shmKHeU_tyy5SRNq-16" value="id: int&#xa;date: date&#xa;time: String&#xa;location: String" style="text;whiteSpace=wrap;" vertex="1" parent="1">
          <mxGeometry x="390" y="750" width="170" height="140" as="geometry" />
        </mxCell>
        <mxCell id="rm31shmKHeU_tyy5SRNq-17" value="id: int&#xa;name: String&#xa;age: int&#xa;position: String&#xa;age: int&#xa;nationality: String" style="text;whiteSpace=wrap;" vertex="1" parent="1">
          <mxGeometry x="610" y="510" width="130" height="110" as="geometry" />
        </mxCell>
        <mxCell id="rm31shmKHeU_tyy5SRNq-18" value="id: int&#xa;name: String&#xa;trainer: name" style="text;whiteSpace=wrap;" vertex="1" parent="1">
          <mxGeometry x="160" y="510" width="150" height="100" as="geometry" />
        </mxCell>
        <mxCell id="rm31shmKHeU_tyy5SRNq-19" value="id: int&#xa;name: String&#xa;season: String" style="text;whiteSpace=wrap;" vertex="1" parent="1">
          <mxGeometry x="400" y="250" width="110" height="70" as="geometry" />
        </mxCell>
        <mxCell id="rm31shmKHeU_tyy5SRNq-20" value="joinDate: date" style="text;html=1;align=center;verticalAlign=middle;resizable=0;points=[];autosize=1;strokeColor=none;fillColor=none;" vertex="1" parent="1">
          <mxGeometry x="250" y="410" width="100" height="30" as="geometry" />
        </mxCell>
      </root>
    </mxGraphModel>
  </diagram>
</mxfile>
